<svg version="1.1" xmlns="http://www.w3.org/2000/svg" viewBox="-8.999824233089171 -11.118836661147423 18.000002 22.790411358222748" fill="none" stroke="black" stroke-width="0.6%" vector-effect="non-scaling-stroke">
    <path d="M 7.00018 3.27776 A 8 4.42034 360 0 1 8.00018 5.41775 A 8 4.42034 360 0 1 -7.99982 5.41775 A 8 4.42034 360 0 1 -6.99982 3.27776" />
    <path d="M -7.99982 6.25123 A 8 4.42034 180 1 0 8.00018 6.25123" />
    <path d="M 7.00018 5.41775 A 7 3.8678 360 0 1 -6.99982 5.41775" />
    <path d="M -4.94961 -8.98596 A 7 3.8678 360 0 1 7.00018 -6.25104 A 7 3.8678 360 0 1 -6.99982 -6.25104 L -6.99982 5.41775" />
    <path d="M -6.99982 -6.25104 A 7 3.8678 360 0 1 -4.94961 -8.98596" />
    <path d="M -4.59605 -8.79061 A 6.5 3.59153 360 0 1 6.50018 -6.25104 A 6.5 3.59153 360 0 1 -6.49982 -6.25104 A 6.5 3.59153 360 0 1 -4.59605 -8.79061 Z" />
    <path d="M -7.99982 5.41775 L -7.99982 6.25123" />
    <path d="M 8.00018 5.41775 L 8.00018 6.25123" />
    <path d="M 7.00018 -6.25104 L 7.00018 5.41775" />
</svg>