<svg version="1.1" xmlns="http://www.w3.org/2000/svg" viewBox="-8.983408586965371 -11.111902581528549 18.000002 22.795751383092867" fill="none" stroke="black" stroke-width="0.6%" vector-effect="non-scaling-stroke">
    <path d="M 7.01659 4.17308 A 7 3.87521 360 0 1 -6.98341 4.17308" />
    <path d="M -7.15489 3.45951 A 8 4.42881 180 0 0 -7.98341 5.42225 A 8 4.42881 180 0 0 8.01659 5.42225 A 8 4.42881 180 0 0 7.18807 3.45951" />
    <path d="M -4.93675 -8.97488 A 7 3.87521 0 0 1 7.01659 -6.23669 A 7 3.87521 0 0 1 -6.98341 -6.23669 L -6.98341 4.17308" />
    <path d="M -6.98341 -6.23669 A 7 3.87521 0 0 1 -4.93675 -8.97488" />
    <path d="M -7.98341 6.25503 A 8 4.42881 180 0 0 8.01659 6.25503" />
    <path d="M -4.58294 -8.7793 A 6.5 3.59841 0 0 1 6.51659 -6.23669 A 6.5 3.59841 0 0 1 -6.48341 -6.23669 A 6.5 3.59841 0 0 1 -4.58294 -8.7793 Z" />
    <path d="M -6.98341 3.26749 L -7.15489 3.45951" />
    <path d="M 7.01659 3.26749 L 7.18807 3.45951" />
    <path d="M 7.01659 -6.23669 L 7.01659 4.17308" />
    <path d="M -7.98341 5.42225 L -7.98341 6.25503" />
    <path d="M 8.01659 5.42225 L 8.01659 6.25503" />
</svg>